# xmcd
#
# Track frame offsets: 
#        150
#        6141
#        45411
#        71167
#        75635
#        87211
#        116531
#        147641
#        175734
#        180372
#        184289
#        202652
#        226691
#        255187
#
# Disc length: 3770 seconds
#
# Revision: 0
# Processed by: cddbd v1.5.2PL0 Copyright (c) Steve Scherf et al.
# Submitted via: ExactAudioCopy v1.0b3
#
DISCID=a70eb80e
DTITLE=Manes - Svarte Skoger
DYEAR=2013
DGENRE=Black Metal
TTITLE0=Intro
TTITLE1=De Mørke Makters Dyp 
TTITLE2=Under Ein Blodraude Maanen
TTITLE3=En Hymne Til Ondsakens Tyrste
TTITLE4=Menn På Helveg Hastar
TTITLE5=Månens Natt 
TTITLE6=Dansen Gjennom Skugge-Heimen 
TTITLE7=Uten Liv Ligger Landet Øde 
TTITLE8=Ned I Stillheten 
TTITLE9=Ravnens Skygge 
TTITLE10=Min Trone Står Til Evig Tid
TTITLE11=I Helvetes Haller
TTITLE12=Til Kongens Grav De Døde Vandrer
TTITLE13=Natt
EXTD=
EXTT0=
EXTT1=
EXTT2=
EXTT3=
EXTT4=
EXTT5=
EXTT6=
EXTT7=
EXTT8=
EXTT9=
EXTT10=
EXTT11=
EXTT12=
EXTT13=
PLAYORDER=
